<svg width="1400" height="648" viewBox="0 0 1400 648" fill="none" xmlns="http://www.w3.org/2000/svg">
<rect width="1400" height="648" fill="#E22828"/>
<path d="M653.417 324.002C729.163 387.606 677.6 439.164 614.002 363.418C550.398 439.164 498.84 387.6 574.586 324.002C498.84 260.398 550.398 208.841 614.002 284.581C677.606 208.835 729.163 260.398 653.417 323.997V324.002Z" fill="#692EFF"/>
<g clip-path="url(#clip0_1115_2235)">
<path d="M799.725 301.12C851.079 212.29 721.914 212.29 773.268 301.12C721.914 212.29 657.331 323.997 760.039 323.997C657.331 323.997 721.914 435.705 773.268 346.874C721.914 435.705 851.079 435.705 799.725 346.874C851.079 435.705 915.662 323.997 812.954 323.997C915.662 323.997 851.079 212.29 799.725 301.12Z" fill="#692EFF"/>
</g>
<defs>
<clipPath id="clip0_1115_2235">
<rect width="162" height="179" fill="white" transform="translate(705.5 234.5)"/>
</clipPath>
</defs>
</svg>
