<svg width="111" height="18" viewBox="0 0 111 18" fill="none" xmlns="http://www.w3.org/2000/svg">
<g clip-path="url(#clip0_40000001_522)">
<path d="M0 0H9.02251C10.9474 0 12.3898 0.418232 13.3531 1.2563C14.3163 2.09436 14.7366 3.26093 14.7971 4.75278C14.9595 8.77806 11.4712 9.78919 11.4712 9.78919C11.7323 9.82284 15.4578 17.5818 15.4578 17.5818H12.1797L8.57991 10.342H3.05845V17.5818H0V0ZM3.05845 8.00249H8.75345C9.7326 8.00249 10.4745 7.76854 10.9792 7.30063C11.4839 6.83273 11.7371 6.13086 11.7371 5.19505C11.7371 4.63741 11.6559 4.18072 11.4919 3.82818C11.3279 3.47565 11.105 3.20004 10.82 3.00294C10.535 2.80584 10.2086 2.67444 9.84086 2.60874C9.47467 2.54304 9.09416 2.51099 8.70409 2.51099H3.05845V8.00249Z" fill="#E22828"/>
<path d="M23.2536 0H26.5079L33.2361 17.5818H29.958L28.3181 12.9283H21.3462L19.7064 17.5818H16.5508L23.2536 0ZM22.1773 10.5872H27.5109L24.8935 3.02858H24.8202L22.1773 10.5872Z" fill="#E22828"/>
<path d="M33.6836 0H36.742V10.2427C36.742 10.834 36.7707 11.4333 36.828 12.0406C36.8853 12.6479 37.0477 13.1943 37.3168 13.6783C37.5859 14.1622 37.9934 14.5612 38.5395 14.8721C39.0856 15.1845 39.8562 15.34 40.8513 15.34C41.8464 15.34 42.6169 15.1845 43.163 14.8721C43.7091 14.5612 44.1167 14.1622 44.3858 13.6783C44.6549 13.1943 44.8172 12.6479 44.8746 12.0406C44.9319 11.4333 44.9605 10.834 44.9605 10.2427V0H48.019V11.2522C48.019 12.3851 47.847 13.369 47.5047 14.2071C47.1624 15.0451 46.6768 15.7454 46.0495 16.3127C45.4207 16.8783 44.6676 17.3013 43.7872 17.5802C42.9067 17.859 41.9276 17.9984 40.8513 17.9984C39.775 17.9984 38.7959 17.859 37.9154 17.5802C37.035 17.3013 36.2803 16.8783 35.653 16.3127C35.0242 15.747 34.5402 15.0451 34.1978 14.2071C33.8555 13.369 33.6836 12.3851 33.6836 11.2522V0Z" fill="#E22828"/>
<path d="M51.543 0H63.6048V2.66002H54.6014V7.26378H62.5031V9.77477H54.6014V17.5802H51.543V0Z" fill="#E22828"/>
<path d="M66.0504 0H78.6249V2.66002H69.1073V7.26378H77.9149V9.77477H69.1073V14.9217H78.7953V17.5818H66.0488V0H66.0504Z" fill="#E22828"/>
<path d="M81.4629 0H84.5213V14.9217H93.4022V17.5818H81.4629V0Z" fill="#E22828"/>
<path d="M95.5059 0H102.748C104.086 0 105.243 0.230749 106.222 0.689041C107.202 1.14894 107.999 1.77709 108.62 2.57349C109.239 3.36989 109.7 4.3009 110.002 5.36811C110.303 6.43532 110.454 7.57625 110.454 8.79088C110.454 10.0055 110.303 11.1464 110.002 12.2137C109.7 13.2809 109.239 14.2119 108.62 15.0083C107.999 15.8047 107.202 16.4328 106.222 16.8911C105.243 17.351 104.086 17.5802 102.748 17.5802H95.5059V0ZM98.5643 15.0692H101.573C102.764 15.0692 103.739 14.9089 104.497 14.59C105.254 14.2696 105.85 13.8273 106.283 13.26C106.714 12.6944 107.009 12.0294 107.163 11.2666C107.318 10.5039 107.396 9.67862 107.396 8.79249C107.396 7.90635 107.318 7.0811 107.163 6.31835C107.007 5.55559 106.714 4.89059 106.283 4.32333C105.85 3.75768 105.256 3.31381 104.497 2.99332C103.739 2.67284 102.763 2.5126 101.573 2.5126H98.5643V15.0708V15.0692Z" fill="#E22828"/>
</g>
<defs>
<clipPath id="clip0_40000001_522">
<rect width="110.455" height="18" fill="white"/>
</clipPath>
</defs>
</svg>
