<svg width="112" height="18" viewBox="0 0 112 18" fill="none" xmlns="http://www.w3.org/2000/svg">
<g clip-path="url(#clip0_1255_5658)">
<path d="M0 0H9.08092C11.0182 0 12.47 0.418232 13.4395 1.2563C14.409 2.09436 14.832 3.26093 14.8929 4.75278C15.0564 8.77806 11.5454 9.78919 11.5454 9.78919C11.8082 9.82284 15.5579 17.5818 15.5579 17.5818H12.2585L8.63545 10.342H3.07825V17.5818H0V0ZM3.07825 8.00249H8.81011C9.7956 8.00249 10.5423 7.76854 11.0503 7.30063C11.5583 6.83273 11.8131 6.13086 11.8131 5.19505C11.8131 4.63741 11.7313 4.18072 11.5663 3.82818C11.4012 3.47565 11.1769 3.20004 10.8901 3.00294C10.6032 2.80584 10.2747 2.67444 9.90457 2.60874C9.53601 2.54304 9.15303 2.51099 8.76044 2.51099H3.07825V8.00249Z" fill="white"/>
<path d="M23.4044 0H26.6797L33.4516 17.5818H30.1522L28.5017 12.9283H21.4847L19.8342 17.5818H16.6582L23.4044 0ZM22.3212 10.5872H27.6893L25.0549 3.02858H24.9812L22.3212 10.5872Z" fill="white"/>
<path d="M33.9023 0H36.9806V10.2427C36.9806 10.834 37.0094 11.4333 37.0671 12.0406C37.1248 12.6479 37.2883 13.1943 37.5591 13.6783C37.8299 14.1622 38.2401 14.5612 38.7897 14.8721C39.3394 15.1845 40.1149 15.34 41.1164 15.34C42.118 15.34 42.8935 15.1845 43.4432 14.8721C43.9928 14.5612 44.403 14.1622 44.6738 13.6783C44.9446 13.1943 45.1081 12.6479 45.1658 12.0406C45.2234 11.4333 45.2523 10.834 45.2523 10.2427V0H48.3305V11.2522C48.3305 12.3851 48.1575 13.369 47.813 14.2071C47.4684 15.0451 46.9797 15.7454 46.3483 16.3127C45.7154 16.8783 44.9574 17.3013 44.0713 17.5802C43.1852 17.859 42.1997 17.9984 41.1164 17.9984C40.0332 17.9984 39.0477 17.859 38.1616 17.5802C37.2754 17.3013 36.5159 16.8783 35.8845 16.3127C35.2516 15.747 34.7644 15.0451 34.4199 14.2071C34.0754 13.369 33.9023 12.3851 33.9023 11.2522V0Z" fill="white"/>
<path d="M51.877 0H64.0169V2.66002H54.9552V7.26378H62.908V9.77477H54.9552V17.5802H51.877V0Z" fill="white"/>
<path d="M66.4782 0H79.1341V2.66002H69.5548V7.26378H78.4194V9.77477H69.5548V14.9217H79.3055V17.5818H66.4766V0H66.4782Z" fill="white"/>
<path d="M81.9902 0H85.0685V14.9217H94.0068V17.5818H81.9902V0Z" fill="white"/>
<path d="M96.125 0H103.414C104.76 0 105.925 0.230749 106.911 0.689041C107.896 1.14894 108.699 1.77709 109.324 2.57349C109.947 3.36989 110.411 4.3009 110.715 5.36811C111.018 6.43532 111.17 7.57625 111.17 8.79088C111.17 10.0055 111.018 11.1464 110.715 12.2137C110.411 13.2809 109.947 14.2119 109.324 15.0083C108.699 15.8047 107.896 16.4328 106.911 16.8911C105.925 17.351 104.76 17.5802 103.414 17.5802H96.125V0ZM99.2033 15.0692H102.232C103.43 15.0692 104.411 14.9089 105.174 14.59C105.937 14.2696 106.536 13.8273 106.972 13.26C107.406 12.6944 107.702 12.0294 107.858 11.2666C108.013 10.5039 108.092 9.67863 108.092 8.79249C108.092 7.90635 108.013 7.0811 107.858 6.31835C107.701 5.55559 107.406 4.89059 106.972 4.32333C106.536 3.75768 105.938 3.31381 105.174 2.99332C104.411 2.67284 103.429 2.5126 102.232 2.5126H99.2033V15.0708V15.0692Z" fill="white"/>
</g>
<defs>
<clipPath id="clip0_1255_5658">
<rect width="111.17" height="18" fill="white"/>
</clipPath>
</defs>
</svg>
